<svg width="1100" height="1100" viewBox="0 0 1100 1100" fill="none" xmlns="http://www.w3.org/2000/svg">
<path d="M85.8671 696.705C91.1145 680.292 104.525 646.434 123 635.5C128 628.167 136.5 612.5 130.5 590.5C124.5 568.5 160.667 558 179.5 555.5C185.167 549.333 197.3 531.3 200.5 508.5C204.5 480 259.5 492 255.5 484.5C267.709 458.128 301.098 405.615 338.8 401.696C340.587 401.511 342.378 401.707 344.131 402.1C367.862 407.417 411.074 414.747 413 405.5C414.722 397.233 452.407 387.632 478.805 382.251C486.002 380.784 491.715 375.467 495.798 369.361C501.196 361.288 510.144 353.117 523.088 351.181C532.571 349.763 542.232 345.618 546.469 337.016C553.322 323.101 558.454 315.234 561.627 311.366C563.335 309.284 565.284 307.355 566.881 305.187C573.974 295.554 586.954 279.76 600.086 268.886C604.878 264.918 608.801 259.344 612.311 254.207C612.882 253.371 613.52 252.483 614.233 251.541C618.89 245.39 625.067 245.553 629.029 252.174C631.559 256.401 634.526 261.429 637.386 266.305C641.151 272.726 638.301 280.979 631.39 283.744L630.609 284.056C628.287 284.985 625.702 285.013 623.361 284.135C620.595 283.098 617.499 283.311 615.044 284.953C610.281 288.137 603.718 293.276 599.5 299C593.024 307.789 583.979 306.735 568.407 342.561C566.459 347.044 569.798 352 574.686 352C575.875 352 577.044 352.306 578.081 352.889L587.678 358.287C590.805 360.047 591.65 359.57 594.609 361.599C602.036 366.691 606.6 381.7 615.04 384.839C618.378 386.081 622.338 387.615 627 389.5C652.703 398.892 652.508 401.931 710.47 436.298C711.792 437.082 713.055 438.043 714.186 439.084C761.446 482.593 845.542 486.325 877.956 492.631C880.658 493.157 883.392 493.274 886.076 492.659C906.395 488.008 949.309 472.61 969.5 465C974 463.5 984 460.5 988 460.5C993 460.5 1009.5 464 1014 472C1018.5 480 1015 506.5 1001.5 507.5C988 508.5 928.5 539 922 549.5C916.968 557.629 823.504 601.374 793.759 623.372C791.902 624.746 790.416 626.498 789.151 628.431C761.547 670.569 681.131 728.732 644 760C596.5 800 552.245 815.5 490.5 815.5C420.534 815.5 327.746 802.867 302.274 784.959C297.887 781.875 293.598 778.124 288.47 776.553C226.158 757.461 186.798 743.089 176.94 739.417C175.3 738.806 173.788 737.981 172.344 736.991C164.759 731.791 138.905 714.985 123 716C106.648 717.044 89.9941 708.707 85.9336 702.241C84.8984 700.592 85.2743 698.559 85.8671 696.705Z" fill="#F4F1F9"/>
<path d="M123 635.5C104.525 646.434 91.1145 680.292 85.8671 696.705C85.2743 698.559 84.8984 700.592 85.9336 702.241C89.9941 708.707 106.648 717.044 123 716C138.905 714.985 164.759 731.791 172.344 736.991C173.788 737.981 175.3 738.806 176.941 739.417C186.798 743.089 226.158 757.461 288.47 776.553C293.598 778.124 297.887 781.875 302.274 784.959C327.746 802.867 420.534 815.5 490.5 815.5C552.245 815.5 596.5 800 644 760C681.131 728.732 761.547 670.569 789.151 628.431C790.416 626.498 791.902 624.746 793.759 623.372C823.504 601.374 916.968 557.629 922 549.5C928.5 539 988 508.5 1001.5 507.5C1015 506.5 1018.5 480 1014 472C1009.5 464 993 460.5 988 460.5C984 460.5 974 463.5 969.5 465C949.309 472.61 906.395 488.008 886.076 492.659C883.392 493.274 880.658 493.157 877.956 492.631C845.542 486.325 761.446 482.593 714.186 439.084C713.055 438.043 711.792 437.082 710.47 436.298C652.508 401.931 652.703 398.892 627 389.5C622.338 387.615 618.378 386.081 615.04 384.839C606.6 381.7 602.036 366.691 594.609 361.599V361.599C591.65 359.57 590.805 360.047 587.678 358.287L578.081 352.889C577.044 352.306 575.875 352 574.686 352V352C569.798 352 566.459 347.044 568.407 342.561C583.979 306.735 593.024 307.789 599.5 299C603.718 293.276 610.281 288.137 615.044 284.953C617.499 283.311 620.595 283.098 623.361 284.135V284.135C625.702 285.013 628.287 284.985 630.609 284.056L631.39 283.744C638.301 280.979 641.151 272.726 637.386 266.305C634.526 261.429 631.559 256.401 629.029 252.174C625.067 245.553 618.89 245.39 614.233 251.541C613.52 252.483 612.882 253.371 612.311 254.207C608.801 259.344 604.878 264.918 600.086 268.886C586.954 279.76 573.974 295.554 566.881 305.187C565.284 307.355 563.335 309.284 561.627 311.366C558.454 315.234 553.322 323.101 546.469 337.016C542.232 345.618 532.571 349.763 523.088 351.181C510.144 353.117 501.196 361.288 495.798 369.361C491.715 375.467 486.002 380.784 478.805 382.251C452.407 387.632 414.722 397.233 413 405.5C411.074 414.747 367.862 407.417 344.131 402.1C342.378 401.707 340.587 401.511 338.8 401.696C301.098 405.615 267.709 458.128 255.5 484.5M123 635.5C128 628.167 136.5 612.5 130.5 590.5C124.5 568.5 160.667 558 179.5 555.5M123 635.5C131.833 637.333 168.347 665.004 155 656C92 613.5 144.5 631.5 192 699.5M179.5 555.5C185.167 549.333 197.3 531.3 200.5 508.5C204.5 480 259.5 492 255.5 484.5M179.5 555.5C223.1 589.5 249.674 617.5 221.5 590.5C233.5 602 261.4 635.4 277 677M255.5 484.5C267.5 489.667 296.5 506.1 316.5 530.5C347.3 571.3 377.333 658.5 388.5 697" stroke="#D1BFD7" stroke-width="30" stroke-linecap="round"/>
<path d="M705 582.5C648.5 592 622.5 592 573 609.5C550.292 617.528 503.264 581.111 457.5 536.829C617.5 464.157 652 495.5 784 548.5C809 557 797 555.5 705 582.5Z" fill="#D1BFD7"/>
<path d="M396 468.5C418.111 495.09 423.455 503.886 457.5 536.829M457.5 536.829C503.264 581.111 550.293 617.528 573 609.5C622.5 592 648.5 592 705 582.5C797 555.5 809 557 784 548.5C652 495.5 617.5 464.157 457.5 536.829Z" stroke="#D1BFD7" stroke-width="30" stroke-linecap="round" stroke-linejoin="round"/>
<path d="M705.5 242C705.5 261.857 689.015 278.5 668 278.5C646.985 278.5 630.5 261.857 630.5 242C630.5 222.143 646.985 205.5 668 205.5C689.015 205.5 705.5 222.143 705.5 242Z" fill="#F4F1F9" stroke="#D1BFD7" stroke-width="35"/>
</svg>
